<svg xmlns="http://www.w3.org/2000/svg" width="118" height="27.31" viewBox="0 0 118 27.31">
  <g id="グループ_2234" data-name="グループ 2234" transform="translate(-1654 -1019.69)">
    <path id="パス_13" data-name="パス 13" d="M5.895.21a4.492,4.492,0,0,0,3.54-1.635l-1.17-1.38a3.062,3.062,0,0,1-2.3,1.1c-1.755,0-2.9-1.455-2.9-3.87,0-2.385,1.26-3.825,2.94-3.825a2.924,2.924,0,0,1,2.055.93l1.155-1.41A4.528,4.528,0,0,0,5.97-11.31C3.165-11.31.81-9.165.81-5.505.81-1.8,3.09.21,5.895.21Zm10.65,0c2.94,0,4.965-2.205,4.965-5.8s-2.025-5.715-4.965-5.715S11.58-9.21,11.58-5.595C11.58-2,13.605.21,16.545.21Zm0-1.92c-1.65,0-2.7-1.515-2.7-3.885,0-2.385,1.05-3.81,2.7-3.81s2.7,1.425,2.7,3.81C19.245-3.225,18.195-1.71,16.545-1.71ZM25.185,0h2.1V-4.455c0-1.275-.165-2.67-.27-3.87h.075L28.215-5.94,31.425,0h2.25V-11.115h-2.1v4.44c0,1.26.18,2.73.285,3.885h-.075l-1.11-2.4L27.45-11.115H25.185ZM37.92,0h2.1V-4.455c0-1.275-.165-2.67-.27-3.87h.075L40.95-5.94,44.16,0h2.25V-11.115h-2.1v4.44c0,1.26.18,2.73.285,3.885H44.52l-1.11-2.4-3.225-5.925H37.92ZM50.655,0H57.63V-1.86H52.875V-4.83h3.9V-6.69h-3.9V-9.255h4.59v-1.86h-6.81ZM65.91.21a4.492,4.492,0,0,0,3.54-1.635l-1.17-1.38a3.062,3.062,0,0,1-2.295,1.1c-1.755,0-2.9-1.455-2.9-3.87,0-2.385,1.26-3.825,2.94-3.825a2.924,2.924,0,0,1,2.055.93l1.155-1.41a4.528,4.528,0,0,0-3.255-1.425c-2.805,0-5.16,2.145-5.16,5.805C60.825-1.8,63.1.21,65.91.21ZM74.7,0h2.22V-9.255h3.15v-1.86H71.58v1.86H74.7Z" transform="translate(1684 1031)" fill="#111"/>
    <line id="線_34" data-name="線 34" x2="106" transform="translate(1666 1035)" fill="none" stroke="#333" stroke-width="1"/>
    <g id="楕円形_20" data-name="楕円形 20" transform="translate(1654 1023)" fill="none" stroke="#333" stroke-width="1">
      <circle cx="12" cy="12" r="12" stroke="none"/>
      <circle cx="12" cy="12" r="11.5" fill="none"/>
    </g>
  </g>
</svg>
