<svg xmlns="http://www.w3.org/2000/svg" width="68" height="54" viewBox="0 0 68 54">
  <g id="グループ_2245" data-name="グループ 2245" transform="translate(-1249 2560)">
    <text id="協力業者様" transform="translate(1249 -2510)" fill="#333" font-size="13" font-family="NotoSansJP-Medium, Noto Sans JP" font-weight="500" letter-spacing="0.05em"><tspan x="0" y="0">協力業者様</tspan></text>
    <g id="握手のイラストアイコン素材_3" data-name="握手のイラストアイコン素材 3" transform="translate(1256 -2663.342)">
      <rect id="長方形_4442" data-name="長方形 4442" width="6.745" height="16.382" transform="matrix(0.952, -0.306, 0.306, 0.952, 41.853, 105.411)" fill="#333"/>
      <path id="パス_9" data-name="パス 9" d="M121.231,129.92a2.17,2.17,0,0,0-2.06-1.493,2.216,2.216,0,0,0-.611.087l-4.9,1.443-1.125.115-1.029-.232a4.137,4.137,0,0,0-2.54-.86,3.958,3.958,0,0,0-.875.094.157.157,0,0,0-.04.007l-3.375.759-1.445.325-5.605-1.651a2.217,2.217,0,0,0-.611-.087,2.167,2.167,0,0,0-2.06,1.493l-3.942,12.03a2.172,2.172,0,0,0,1.4,2.739l2.154.694.1.032c.067.028.136.054.2.076a3.4,3.4,0,0,0,.408.878,3.183,3.183,0,0,0,.409.5c.05.054.108.108.163.159a3.468,3.468,0,0,0,1.2.683c.026.09.078.173.113.261.028.071.058.141.09.209a3.244,3.244,0,0,0,.279.477c.053.076.109.149.169.22s.1.148.163.213a3.338,3.338,0,0,0,1.366.838,3.339,3.339,0,0,0,.817,1.384,3.355,3.355,0,0,0,2.063.98l3.18,3.689a4.083,4.083,0,0,0,2.8,1.586,3.613,3.613,0,0,0,.444.025,4.068,4.068,0,0,0,3.639-2.248,4.088,4.088,0,0,0,3.1-2.215,4.048,4.048,0,0,0,3.093-2.211,4.033,4.033,0,0,0,1.825-.723,4.079,4.079,0,0,0,1.42-4.817l2.154-.694a2.172,2.172,0,0,0,1.4-2.739Zm-13.4,17.934h0l-.01-.014-1.164.828h0l-.014.01,3.755,5.254a1.9,1.9,0,0,1-3.4.7l-.686-.8-1.85-2.217c.04-.03.08-.059.119-.092a1.063,1.063,0,0,0,.119-.1l.441-.361a2.249,2.249,0,0,0,.782-2.226,1.794,1.794,0,0,0-.268-.668,1.905,1.905,0,0,0-2.663-.39l-.228.168-.193.125a1.894,1.894,0,0,0-2.016-3.181,2.457,2.457,0,0,0-.29.15,1.9,1.9,0,0,0-2.767-2.5l-1.42,1.046-.363-.116-2.623-.845h0L97.02,130.6l5.793,1.7.35.1,2.719-.612,2-.437c-.9,1.247-2.655,3.45-3.545,4.617-2.078,2.725-1.525,5.5,1.366,4.671,3.313-.945,3.91-5.011,6.223-5.168l.878-.035,6.58,10.341a1.826,1.826,0,0,1,.159.267,1.9,1.9,0,0,1-1.691,2.743l-.343-.481-3.494-4.9-1.16.832h0l-.014.01,3.7,5.182.05.072a1.888,1.888,0,0,1-.748,1.139,1.745,1.745,0,0,1-.593.282,1.777,1.777,0,0,1-.495.072l-3.838-5.374-1.157.823-.007.005h0l-.014.01,3.751,5.255a1.876,1.876,0,0,1-1.836,1.492l-3.813-5.339Z" transform="translate(-81.448 -22.474)" fill="#333"/>
      <path id="パス_10" data-name="パス 10" d="M11.437,105.425h0l.005-.016-6.421-2.068L0,118.935,6.421,121l5-15.542Z" transform="translate(0 0)" fill="#333"/>
    </g>
  </g>
</svg>
