<svg xmlns="http://www.w3.org/2000/svg" width="30" height="30.51" viewBox="0 0 30 30.51">
  <g id="インスタグラムのシンプルなロゴのアイコン_1" data-name="インスタグラムのシンプルなロゴのアイコン 1" transform="translate(-4.281)">
    <path id="パス_6" data-name="パス 6" d="M25.659,0H12.9A8.622,8.622,0,0,0,4.281,8.622V21.888A8.622,8.622,0,0,0,12.9,30.51H25.659a8.622,8.622,0,0,0,8.622-8.622V8.622A8.622,8.622,0,0,0,25.659,0ZM7.342,8.622A5.567,5.567,0,0,1,12.9,3.061H25.659A5.567,5.567,0,0,1,31.22,8.622V21.888a5.567,5.567,0,0,1-5.561,5.561H12.9a5.567,5.567,0,0,1-5.561-5.561Z" fill="#333"/>
    <path id="パス_7" data-name="パス 7" d="M131.292,138.38a7.117,7.117,0,1,0-7.143-7.117A7.138,7.138,0,0,0,131.292,138.38Zm0-12.016a4.9,4.9,0,1,1-4.916,4.9A4.913,4.913,0,0,1,131.292,126.363Z" transform="translate(-112.011 -116.007)" fill="#333"/>
    <ellipse id="楕円形_19" data-name="楕円形 19" cx="1.936" cy="1.936" rx="1.936" ry="1.936" transform="translate(25.324 5.338)" fill="#333"/>
  </g>
</svg>
