<svg xmlns="http://www.w3.org/2000/svg" width="120" height="142" viewBox="0 0 120 142">
  <g id="PDFファイルアイコン2" transform="translate(-41.353)">
    <path id="パス_14" data-name="パス 14" d="M211.824,257.516a67.457,67.457,0,0,0-13.739,1.276,61.943,61.943,0,0,1-8.258-10.992c6.777-19.487,2.485-25.026-3.292-25.026-4.537,0-6.8,4.788-6.3,10.078.255,2.663,2.51,8.258,5.286,13.573a153.389,153.389,0,0,1-7.758,17.527,69.435,69.435,0,0,0-8.733,3.271c-10.827,5.035-11.7,11.758-9.444,14.607,4.278,5.412,13.391.743,22.536-15.613,6.261-1.78,14.5-4.152,15.241-4.152a1.213,1.213,0,0,1,.339.071c4.564,4.025,9.955,8.633,14.391,9.239,6.42.883,10.074-3.773,9.821-6.669S219.971,258.005,211.824,257.516ZM171.3,275.158c-2.646,3.146-6.926,6.164-8.436,5.16s-1.763-3.9,1.638-7.177,9.089-4.97,9.944-5.288c1.01-.376,1.262,0,1.262.5S173.94,272.008,171.3,275.158Zm11.586-42.308c-.253-3.15.374-6.17,3.02-6.547s3.9,2.642,2.9,7.551-1.514,8.185-2.016,8.568-1-.885-1-.885C184.769,239.52,183.133,236,182.882,232.85Zm1.008,29.59c1.383-2.27,4.909-11.456,4.909-11.456.755,1.387,6.671,8.432,6.671,8.432S186.4,261.434,183.89,262.44Zm27.442,4.024c-3.776-.5-10.2-5.037-10.2-5.037-.88-.376,7.035-1.452,10.074-1.257,3.905.253,5.29,1.891,5.29,3.527S215.116,266.969,211.332,266.464Z" transform="translate(-84.709 -162.183)" fill="#ff0707"/>
    <path id="パス_15" data-name="パス 15" d="M158.75,29.859,131.261,2.583,128.658,0H68.913A23.942,23.942,0,0,0,44.907,23.824v1.822H41.353V54.139h3.554v64.04A23.941,23.941,0,0,0,68.913,142h68.431a23.942,23.942,0,0,0,24.01-23.822V32.443ZM137.343,133.178H68.913a15.059,15.059,0,0,1-15.119-15V54.138H97.767V25.646H53.794V23.824a15.061,15.061,0,0,1,15.119-15h53.933V25.707a12.552,12.552,0,0,0,12.6,12.5h17.019v79.972A15.061,15.061,0,0,1,137.343,133.178ZM54.417,46.063V32.874a.425.425,0,0,1,.426-.423h4.223a5.257,5.257,0,0,1,1.911.336,4.542,4.542,0,0,1,1.481.921,3.908,3.908,0,0,1,.96,1.42,4.625,4.625,0,0,1,.33,1.746,4.569,4.569,0,0,1-.333,1.756,4.066,4.066,0,0,1-.955,1.4,4.357,4.357,0,0,1-1.487.923,5.355,5.355,0,0,1-1.907.326H57.284v4.782a.424.424,0,0,1-.426.422H54.844A.425.425,0,0,1,54.417,46.063Zm13.025,0V32.874a.425.425,0,0,1,.426-.423h4.668a5.783,5.783,0,0,1,2.327.435,4.8,4.8,0,0,1,1.774,1.389,4.106,4.106,0,0,1,.625,1.086,6.331,6.331,0,0,1,.332,1.222,10.218,10.218,0,0,1,.127,1.375c.013.47.019.975.019,1.511s-.006,1.039-.019,1.509a10.308,10.308,0,0,1-.127,1.377,6.3,6.3,0,0,1-.332,1.22,4.091,4.091,0,0,1-.623,1.084,4.75,4.75,0,0,1-1.776,1.391,5.747,5.747,0,0,1-2.327.435H67.868A.424.424,0,0,1,67.442,46.063Zm22.246-7.795a.425.425,0,0,1,.426.423v1.8a.425.425,0,0,1-.426.423h-5.1v5.153a.425.425,0,0,1-.426.422H82.147a.424.424,0,0,1-.426-.422V32.875a.425.425,0,0,1,.426-.423h7.73a.425.425,0,0,1,.426.423v1.8a.425.425,0,0,1-.426.423H84.588v3.174h5.1Z" transform="translate(0)" fill="#ff0707"/>
    <path id="パス_16" data-name="パス 16" d="M101.462,129.68a2.015,2.015,0,0,0,0-2.671,2.054,2.054,0,0,0-1.435-.473H98.345v3.616h1.682A2.053,2.053,0,0,0,101.462,129.68Z" transform="translate(-40.95 -91.456)" fill="#ff0707"/>
    <path id="パス_17" data-name="パス 17" d="M148.093,135.2a2.077,2.077,0,0,0,.837-.588,2.268,2.268,0,0,0,.5-1.27,26.828,26.828,0,0,0,0-4.824,2.269,2.269,0,0,0-.5-1.269,2.093,2.093,0,0,0-.837-.588,3.168,3.168,0,0,0-1.138-.19h-2.016v8.917h2.016A3.193,3.193,0,0,0,148.093,135.2Z" transform="translate(-74.64 -91.428)" fill="#ff0707"/>
  </g>
</svg>
