<svg xmlns="http://www.w3.org/2000/svg" width="149.514" height="25" viewBox="0 0 149.514 25">
  <g id="グループ_2243" data-name="グループ 2243" transform="translate(-1049.453 2460)">
    <path id="パス_14" data-name="パス 14" d="M5.185.238c2.669,0,4.471-2.244,4.471-6.46,0-4.2-1.8-6.358-4.471-6.358C2.5-12.58.7-10.438.7-6.222S2.5.238,5.185.238Zm0-2.346c-.9,0-1.632-.782-1.632-4.114s.731-4.012,1.632-4.012S6.8-9.554,6.8-6.222,6.086-2.108,5.185-2.108ZM14.6-8.415c0-1.377.68-1.9,1.479-1.9.765,0,1.547.544,1.819,2.414A2.027,2.027,0,0,1,16.15-6.732C15.283-6.732,14.6-7.14,14.6-8.415ZM15.725.238c2.6,0,5.015-2.108,5.015-6.664,0-4.386-2.329-6.154-4.726-6.154a4.006,4.006,0,0,0-4.165,4.165,3.433,3.433,0,0,0,3.706,3.808,3.416,3.416,0,0,0,2.414-1.275C17.85-3.128,16.83-2.21,15.521-2.21a2.724,2.724,0,0,1-1.9-.884l-1.6,1.819A5.1,5.1,0,0,0,15.725.238ZM23.12,0h8.772V-2.55H29.563a17.928,17.928,0,0,0-2.074.17c1.9-1.972,3.825-4.165,3.825-6.222a3.848,3.848,0,0,0-4.148-3.978,5.29,5.29,0,0,0-4.2,1.955l1.649,1.632a3.205,3.205,0,0,1,2.142-1.224,1.561,1.561,0,0,1,1.649,1.785c0,1.734-2.227,3.842-5.287,6.7ZM34.459-3.859H39.27V-5.984H34.459ZM41.684,0h8.772V-2.55H48.127a17.927,17.927,0,0,0-2.074.17c1.9-1.972,3.825-4.165,3.825-6.222A3.848,3.848,0,0,0,45.73-12.58a5.29,5.29,0,0,0-4.2,1.955L43.18-8.993a3.205,3.205,0,0,1,2.142-1.224,1.561,1.561,0,0,1,1.649,1.785c0,1.734-2.227,3.842-5.287,6.7ZM57.358.238c2.669,0,4.471-2.244,4.471-6.46,0-4.2-1.8-6.358-4.471-6.358-2.686,0-4.488,2.142-4.488,6.358S54.672.238,57.358.238Zm0-2.346c-.9,0-1.632-.782-1.632-4.114s.731-4.012,1.632-4.012,1.615.68,1.615,4.012S58.259-2.108,57.358-2.108ZM64.7,0h7.99V-2.448H70.414v-9.894H68.187a8.847,8.847,0,0,1-3.128,1.156v1.87h2.329v6.868H64.7ZM75.429-3.859H80.24V-5.984H75.429ZM86.785.238A4.3,4.3,0,0,0,91.358-4.1a3.614,3.614,0,0,0-3.944-3.825,3.208,3.208,0,0,0-1.309.255l.187-2.142H90.8v-2.533H83.691l-.323,6.273,1.326.867a2.827,2.827,0,0,1,1.785-.629,1.705,1.705,0,0,1,1.853,1.819c0,1.19-.765,1.8-1.989,1.8a3.85,3.85,0,0,1-2.6-1.207l-1.377,1.9A6.026,6.026,0,0,0,86.785.238ZM93.857,0h8.772V-2.55H100.3a17.928,17.928,0,0,0-2.074.17c1.9-1.972,3.825-4.165,3.825-6.222A3.848,3.848,0,0,0,97.9-12.58a5.29,5.29,0,0,0-4.2,1.955l1.649,1.632a3.205,3.205,0,0,1,2.142-1.224,1.561,1.561,0,0,1,1.649,1.785c0,1.734-2.227,3.842-5.287,6.7Zm13.532,0h3.043c.221-4.811.6-7.089,3.451-10.472v-1.87h-8.67v2.533h5.44A16.423,16.423,0,0,0,107.389,0Zm13.005.238A4.3,4.3,0,0,0,124.967-4.1a3.614,3.614,0,0,0-3.944-3.825,3.208,3.208,0,0,0-1.309.255l.187-2.142h4.505v-2.533H117.3l-.323,6.273L118.3-5.2a2.827,2.827,0,0,1,1.785-.629,1.705,1.705,0,0,1,1.853,1.819c0,1.19-.765,1.8-1.989,1.8a3.85,3.85,0,0,1-2.6-1.207l-1.377,1.9A6.026,6.026,0,0,0,120.394.238Z" transform="translate(1074 -2440)" fill="#333"/>
    <g id="スマホの無料アイコン素材_7" data-name="スマホの無料アイコン素材 7" transform="translate(968.489 -2460)">
      <path id="パス_11" data-name="パス 11" d="M81.709.748a2.542,2.542,0,0,0-.745,1.8v19.9A2.549,2.549,0,0,0,83.512,25h12a2.551,2.551,0,0,0,2.548-2.548V2.551A2.549,2.549,0,0,0,95.51,0l-12,0A2.553,2.553,0,0,0,81.709.748Zm8.716,21.7a1.212,1.212,0,1,1,.3-.8A1.212,1.212,0,0,1,90.425,22.452Zm5.085-19.9V18.694h-12V2.548l11.972,0Z" transform="translate(0)" fill="#333"/>
    </g>
  </g>
</svg>
